<svg width="256" height="256" viewBox="0 0 256 256" fill="none" xmlns="http://www.w3.org/2000/svg">
  <rect width="256" height="256" rx="48" fill="#0A0118"/>
  <path d="M72.6 193.2V53.4H127.7C138.3 53.4 147.3 55.4 154.8 59.5C162.2 63.5 168 69.1 172 76.2C176.1 83.3 178.1 91.5 178.1 100.7C178.1 110 176 118.1 171.8 125.2C167.6 132.3 161.8 137.8 154.4 141.7C147 145.7 137.9 147.7 127.2 147.7H92.1V124.1H123.4C129.1 124.1 133.8 123.1 137.5 121.1C141.2 119.1 144 116.4 145.8 112.9C147.7 109.4 148.6 105.3 148.6 100.7C148.6 96.1 147.7 92 145.8 88.5C144 85 141.2 82.3 137.5 80.4C133.8 78.4 129 77.4 123.3 77.4H99.4V193.2H72.6Z" fill="white"/>
</svg>
